<svg width="68" height="51" viewBox="0 0 68 51" fill="none" xmlns="http://www.w3.org/2000/svg">
<circle cx="33.5272" cy="19.5272" r="19.5272" fill="#002247"/>
<path d="M26.1821 28.3055C26.1821 24.3479 29.3904 21.1396 33.3481 21.1396C37.3057 21.1396 40.514 24.3479 40.514 28.3055V37.6213L36.6259 38.1467C34.8061 38.3926 32.9627 38.4097 31.1387 38.1976L26.1821 37.6213V28.3055Z" fill="#00EAEF"/>
<path d="M40.514 27.0515C40.514 25.1716 42.038 23.6477 43.9178 23.6477C45.7977 23.6477 47.3217 25.1716 47.3217 27.0515V31.6463C47.3217 32.2463 47.0255 32.8077 46.5303 33.1466L45.1139 34.1157C44.3205 34.6586 43.6071 35.3102 42.9948 36.0514C42.1585 37.0638 40.514 36.4724 40.514 35.1592V27.0515Z" fill="#00EAEF"/>
<path d="M26.1821 27.0515C26.1821 25.1716 24.6582 23.6477 22.7783 23.6477C20.8984 23.6477 19.3744 25.1716 19.3744 27.0515V31.6463C19.3744 32.2463 19.6706 32.8077 20.1658 33.1466L22.7783 34.9341L24.7489 36.7255C25.2778 37.2544 26.1821 36.8798 26.1821 36.1319V27.0515Z" fill="#00EAEF"/>
<circle cx="33.3481" cy="10.0323" r="7.16595" fill="white"/>
<circle cx="22.7783" cy="17.3774" r="3.40383" fill="white"/>
<circle cx="43.9178" cy="17.3774" r="3.40383" fill="white"/>
<circle cx="33.5272" cy="19.5272" r="18.5272" stroke="#002247" stroke-width="2"/>
<mask id="path-9-inside-1_6_127" fill="white">
<path fill-rule="evenodd" clip-rule="evenodd" d="M33.348 6.09106C32.5565 6.09106 31.9149 6.73273 31.9149 7.52426V8.59913H30.84C30.0485 8.59913 29.4068 9.24079 29.4068 10.0323C29.4068 10.8239 30.0485 11.4655 30.84 11.4655H31.9149V12.5404C31.9149 13.332 32.5565 13.9736 33.348 13.9736C34.1396 13.9736 34.7812 13.332 34.7812 12.5404V11.4655H35.8562C36.6477 11.4655 37.2894 10.8239 37.2894 10.0323C37.2894 9.24079 36.6477 8.59913 35.8562 8.59913H34.7812V7.52426C34.7812 6.73273 34.1396 6.09106 33.348 6.09106Z"/>
</mask>
<path fill-rule="evenodd" clip-rule="evenodd" d="M33.348 6.09106C32.5565 6.09106 31.9149 6.73273 31.9149 7.52426V8.59913H30.84C30.0485 8.59913 29.4068 9.24079 29.4068 10.0323C29.4068 10.8239 30.0485 11.4655 30.84 11.4655H31.9149V12.5404C31.9149 13.332 32.5565 13.9736 33.348 13.9736C34.1396 13.9736 34.7812 13.332 34.7812 12.5404V11.4655H35.8562C36.6477 11.4655 37.2894 10.8239 37.2894 10.0323C37.2894 9.24079 36.6477 8.59913 35.8562 8.59913H34.7812V7.52426C34.7812 6.73273 34.1396 6.09106 33.348 6.09106Z" fill="#00DF94"/>
<path d="M31.9149 8.59913V9.59913H32.9149V8.59913H31.9149ZM31.9149 11.4655H32.9149V10.4655H31.9149V11.4655ZM34.7812 11.4655V10.4655H33.7812V11.4655H34.7812ZM34.7812 8.59913H33.7812V9.59913H34.7812V8.59913ZM32.9149 7.52426C32.9149 7.28501 33.1088 7.09106 33.348 7.09106V5.09106C32.0042 5.09106 30.9149 6.18044 30.9149 7.52426H32.9149ZM32.9149 8.59913V7.52426H30.9149V8.59913H32.9149ZM30.84 9.59913H31.9149V7.59913H30.84V9.59913ZM30.4068 10.0323C30.4068 9.79308 30.6007 9.59913 30.84 9.59913V7.59913C29.4962 7.59913 28.4068 8.68851 28.4068 10.0323H30.4068ZM30.84 10.4655C30.6007 10.4655 30.4068 10.2716 30.4068 10.0323H28.4068C28.4068 11.3761 29.4962 12.4655 30.84 12.4655V10.4655ZM31.9149 10.4655H30.84V12.4655H31.9149V10.4655ZM32.9149 12.5404V11.4655H30.9149V12.5404H32.9149ZM33.348 12.9736C33.1088 12.9736 32.9149 12.7797 32.9149 12.5404H30.9149C30.9149 13.8842 32.0042 14.9736 33.348 14.9736V12.9736ZM33.7812 12.5404C33.7812 12.7797 33.5873 12.9736 33.348 12.9736V14.9736C34.6919 14.9736 35.7812 13.8842 35.7812 12.5404H33.7812ZM33.7812 11.4655V12.5404H35.7812V11.4655H33.7812ZM35.8562 10.4655H34.7812V12.4655H35.8562V10.4655ZM36.2894 10.0323C36.2894 10.2716 36.0954 10.4655 35.8562 10.4655V12.4655C37.2 12.4655 38.2894 11.3761 38.2894 10.0323H36.2894ZM35.8562 9.59913C36.0954 9.59913 36.2894 9.79308 36.2894 10.0323H38.2894C38.2894 8.68851 37.2 7.59913 35.8562 7.59913V9.59913ZM34.7812 9.59913H35.8562V7.59913H34.7812V9.59913ZM33.7812 7.52426V8.59913H35.7812V7.52426H33.7812ZM33.348 7.09106C33.5873 7.09106 33.7812 7.28501 33.7812 7.52426H35.7812C35.7812 6.18044 34.6919 5.09106 33.348 5.09106V7.09106Z" fill="#002247" mask="url(#path-9-inside-1_6_127)"/>
<mask id="path-11-inside-2_6_127" fill="white">
<path fill-rule="evenodd" clip-rule="evenodd" d="M22.8271 15.7651C22.5033 15.7651 22.2408 16.0276 22.2408 16.3514V16.7911H21.7523C21.4285 16.7911 21.166 17.0536 21.166 17.3775C21.166 17.7013 21.4285 17.9638 21.7523 17.9638H22.2408V18.4035C22.2408 18.7273 22.5033 18.9898 22.8271 18.9898C23.1509 18.9898 23.4134 18.7273 23.4134 18.4035V17.9638H23.8043C24.1281 17.9638 24.3906 17.7013 24.3906 17.3775C24.3906 17.0536 24.1281 16.7911 23.8043 16.7911H23.4134V16.3514C23.4134 16.0276 23.1509 15.7651 22.8271 15.7651Z"/>
</mask>
<path fill-rule="evenodd" clip-rule="evenodd" d="M22.8271 15.7651C22.5033 15.7651 22.2408 16.0276 22.2408 16.3514V16.7911H21.7523C21.4285 16.7911 21.166 17.0536 21.166 17.3775C21.166 17.7013 21.4285 17.9638 21.7523 17.9638H22.2408V18.4035C22.2408 18.7273 22.5033 18.9898 22.8271 18.9898C23.1509 18.9898 23.4134 18.7273 23.4134 18.4035V17.9638H23.8043C24.1281 17.9638 24.3906 17.7013 24.3906 17.3775C24.3906 17.0536 24.1281 16.7911 23.8043 16.7911H23.4134V16.3514C23.4134 16.0276 23.1509 15.7651 22.8271 15.7651Z" fill="#00DF94"/>
<path d="M22.2408 16.7911V17.7911H23.2408V16.7911H22.2408ZM22.2408 17.9638H23.2408V16.9638H22.2408V17.9638ZM23.4134 17.9638V16.9638H22.4134V17.9638H23.4134ZM23.4134 16.7911H22.4134V17.7911H23.4134V16.7911ZM23.2408 16.3514C23.2408 16.5799 23.0556 16.7651 22.8271 16.7651V14.7651C21.951 14.7651 21.2408 15.4753 21.2408 16.3514H23.2408ZM23.2408 16.7911V16.3514H21.2408V16.7911H23.2408ZM21.7523 17.7911H22.2408V15.7911H21.7523V17.7911ZM22.166 17.3775C22.166 17.6059 21.9807 17.7911 21.7523 17.7911V15.7911C20.8762 15.7911 20.166 16.5014 20.166 17.3775H22.166ZM21.7523 16.9638C21.9807 16.9638 22.166 17.149 22.166 17.3775H20.166C20.166 18.2535 20.8762 18.9638 21.7523 18.9638V16.9638ZM22.2408 16.9638H21.7523V18.9638H22.2408V16.9638ZM23.2408 18.4035V17.9638H21.2408V18.4035H23.2408ZM22.8271 17.9898C23.0556 17.9898 23.2408 18.175 23.2408 18.4035H21.2408C21.2408 19.2796 21.951 19.9898 22.8271 19.9898V17.9898ZM22.4134 18.4035C22.4134 18.175 22.5987 17.9898 22.8271 17.9898V19.9898C23.7032 19.9898 24.4134 19.2796 24.4134 18.4035H22.4134ZM22.4134 17.9638V18.4035H24.4134V17.9638H22.4134ZM23.8043 16.9638H23.4134V18.9638H23.8043V16.9638ZM23.3906 17.3775C23.3906 17.149 23.5759 16.9638 23.8043 16.9638V18.9638C24.6804 18.9638 25.3906 18.2535 25.3906 17.3775H23.3906ZM23.8043 17.7911C23.5759 17.7911 23.3906 17.6059 23.3906 17.3775H25.3906C25.3906 16.5014 24.6804 15.7911 23.8043 15.7911V17.7911ZM23.4134 17.7911H23.8043V15.7911H23.4134V17.7911ZM22.4134 16.3514V16.7911H24.4134V16.3514H22.4134ZM22.8271 16.7651C22.5987 16.7651 22.4134 16.5799 22.4134 16.3514H24.4134C24.4134 15.4753 23.7032 14.7651 22.8271 14.7651V16.7651Z" fill="#002247" mask="url(#path-11-inside-2_6_127)"/>
<mask id="path-13-inside-3_6_127" fill="white">
<path fill-rule="evenodd" clip-rule="evenodd" d="M43.9667 15.7651C43.6429 15.7651 43.3804 16.0276 43.3804 16.3514V16.7911H42.8918C42.568 16.7911 42.3055 17.0536 42.3055 17.3775C42.3055 17.7013 42.568 17.9638 42.8918 17.9638H43.3804V18.4035C43.3804 18.7273 43.6429 18.9898 43.9667 18.9898C44.2905 18.9898 44.553 18.7273 44.553 18.4035V17.9638H44.9439C45.2677 17.9638 45.5302 17.7013 45.5302 17.3775C45.5302 17.0536 45.2677 16.7911 44.9439 16.7911H44.553V16.3514C44.553 16.0276 44.2905 15.7651 43.9667 15.7651Z"/>
</mask>
<path fill-rule="evenodd" clip-rule="evenodd" d="M43.9667 15.7651C43.6429 15.7651 43.3804 16.0276 43.3804 16.3514V16.7911H42.8918C42.568 16.7911 42.3055 17.0536 42.3055 17.3775C42.3055 17.7013 42.568 17.9638 42.8918 17.9638H43.3804V18.4035C43.3804 18.7273 43.6429 18.9898 43.9667 18.9898C44.2905 18.9898 44.553 18.7273 44.553 18.4035V17.9638H44.9439C45.2677 17.9638 45.5302 17.7013 45.5302 17.3775C45.5302 17.0536 45.2677 16.7911 44.9439 16.7911H44.553V16.3514C44.553 16.0276 44.2905 15.7651 43.9667 15.7651Z" fill="#00DF94"/>
<path d="M43.3804 16.7911V17.7911H44.3804V16.7911H43.3804ZM43.3804 17.9638H44.3804V16.9638H43.3804V17.9638ZM44.553 17.9638V16.9638H43.553V17.9638H44.553ZM44.553 16.7911H43.553V17.7911H44.553V16.7911ZM44.3804 16.3514C44.3804 16.5799 44.1952 16.7651 43.9667 16.7651V14.7651C43.0906 14.7651 42.3804 15.4753 42.3804 16.3514H44.3804ZM44.3804 16.7911V16.3514H42.3804V16.7911H44.3804ZM42.8918 17.7911H43.3804V15.7911H42.8918V17.7911ZM43.3055 17.3775C43.3055 17.6059 43.1203 17.7911 42.8918 17.7911V15.7911C42.0157 15.7911 41.3055 16.5014 41.3055 17.3775H43.3055ZM42.8918 16.9638C43.1203 16.9638 43.3055 17.149 43.3055 17.3775H41.3055C41.3055 18.2535 42.0157 18.9638 42.8918 18.9638V16.9638ZM43.3804 16.9638H42.8918V18.9638H43.3804V16.9638ZM44.3804 18.4035V17.9638H42.3804V18.4035H44.3804ZM43.9667 17.9898C44.1952 17.9898 44.3804 18.175 44.3804 18.4035H42.3804C42.3804 19.2796 43.0906 19.9898 43.9667 19.9898V17.9898ZM43.553 18.4035C43.553 18.175 43.7382 17.9898 43.9667 17.9898V19.9898C44.8428 19.9898 45.553 19.2796 45.553 18.4035H43.553ZM43.553 17.9638V18.4035H45.553V17.9638H43.553ZM44.9439 16.9638H44.553V18.9638H44.9439V16.9638ZM44.5302 17.3775C44.5302 17.149 44.7154 16.9638 44.9439 16.9638V18.9638C45.8199 18.9638 46.5302 18.2535 46.5302 17.3775H44.5302ZM44.9439 17.7911C44.7154 17.7911 44.5302 17.6059 44.5302 17.3775H46.5302C46.5302 16.5014 45.8199 15.7911 44.9439 15.7911V17.7911ZM44.553 17.7911H44.9439V15.7911H44.553V17.7911ZM43.553 16.3514V16.7911H45.553V16.3514H43.553ZM43.9667 16.7651C43.7382 16.7651 43.553 16.5799 43.553 16.3514H45.553C45.553 15.4753 44.8428 14.7651 43.9667 14.7651V16.7651Z" fill="#002247" mask="url(#path-13-inside-3_6_127)"/>
<path d="M4.69 50L2.33 46.9V50H0.62V42.98H2.33V46.06L4.67 42.98H6.68L3.96 46.42L6.78 50H4.69ZM8.45266 43.84C8.15266 43.84 7.90599 43.7533 7.71266 43.58C7.52599 43.4 7.43266 43.18 7.43266 42.92C7.43266 42.6533 7.52599 42.4333 7.71266 42.26C7.90599 42.08 8.15266 41.99 8.45266 41.99C8.74599 41.99 8.98599 42.08 9.17266 42.26C9.36599 42.4333 9.46266 42.6533 9.46266 42.92C9.46266 43.18 9.36599 43.4 9.17266 43.58C8.98599 43.7533 8.74599 43.84 8.45266 43.84ZM9.30266 44.42V50H7.59266V44.42H9.30266ZM10.2019 47.2C10.2019 46.6267 10.3085 46.1233 10.5219 45.69C10.7419 45.2567 11.0385 44.9233 11.4119 44.69C11.7852 44.4567 12.2019 44.34 12.6619 44.34C13.0285 44.34 13.3619 44.4167 13.6619 44.57C13.9685 44.7233 14.2085 44.93 14.3819 45.19V42.6H16.0919V50H14.3819V49.2C14.2219 49.4667 13.9919 49.68 13.6919 49.84C13.3985 50 13.0552 50.08 12.6619 50.08C12.2019 50.08 11.7852 49.9633 11.4119 49.73C11.0385 49.49 10.7419 49.1533 10.5219 48.72C10.3085 48.28 10.2019 47.7733 10.2019 47.2ZM14.3819 47.21C14.3819 46.7833 14.2619 46.4467 14.0219 46.2C13.7885 45.9533 13.5019 45.83 13.1619 45.83C12.8219 45.83 12.5319 45.9533 12.2919 46.2C12.0585 46.44 11.9419 46.7733 11.9419 47.2C11.9419 47.6267 12.0585 47.9667 12.2919 48.22C12.5319 48.4667 12.8219 48.59 13.1619 48.59C13.5019 48.59 13.7885 48.4667 14.0219 48.22C14.2619 47.9733 14.3819 47.6367 14.3819 47.21ZM19.599 50.08C19.1123 50.08 18.679 49.9967 18.299 49.83C17.919 49.6633 17.619 49.4367 17.399 49.15C17.179 48.8567 17.0557 48.53 17.029 48.17H18.719C18.739 48.3633 18.829 48.52 18.989 48.64C19.149 48.76 19.3457 48.82 19.579 48.82C19.7923 48.82 19.9557 48.78 20.069 48.7C20.189 48.6133 20.249 48.5033 20.249 48.37C20.249 48.21 20.1657 48.0933 19.999 48.02C19.8323 47.94 19.5623 47.8533 19.189 47.76C18.789 47.6667 18.4557 47.57 18.189 47.47C17.9223 47.3633 17.6923 47.2 17.499 46.98C17.3057 46.7533 17.209 46.45 17.209 46.07C17.209 45.75 17.2957 45.46 17.469 45.2C17.649 44.9333 17.909 44.7233 18.249 44.57C18.5957 44.4167 19.0057 44.34 19.479 44.34C20.179 44.34 20.729 44.5133 21.129 44.86C21.5357 45.2067 21.769 45.6667 21.829 46.24H20.249C20.2223 46.0467 20.1357 45.8933 19.989 45.78C19.849 45.6667 19.6623 45.61 19.429 45.61C19.229 45.61 19.0757 45.65 18.969 45.73C18.8623 45.8033 18.809 45.9067 18.809 46.04C18.809 46.2 18.8923 46.32 19.059 46.4C19.2323 46.48 19.499 46.56 19.859 46.64C20.2723 46.7467 20.609 46.8533 20.869 46.96C21.129 47.06 21.3557 47.2267 21.549 47.46C21.749 47.6867 21.8523 47.9933 21.859 48.38C21.859 48.7067 21.7657 49 21.579 49.26C21.399 49.5133 21.1357 49.7133 20.789 49.86C20.449 50.0067 20.0523 50.08 19.599 50.08ZM27.5652 45.2C27.4385 44.9667 27.2552 44.79 27.0152 44.67C26.7818 44.5433 26.5052 44.48 26.1852 44.48C25.6318 44.48 25.1885 44.6633 24.8552 45.03C24.5218 45.39 24.3552 45.8733 24.3552 46.48C24.3552 47.1267 24.5285 47.6333 24.8752 48C25.2285 48.36 25.7118 48.54 26.3252 48.54C26.7452 48.54 27.0985 48.4333 27.3852 48.22C27.6785 48.0067 27.8918 47.7 28.0252 47.3H25.8552V46.04H29.5752V47.63C29.4485 48.0567 29.2318 48.4533 28.9252 48.82C28.6252 49.1867 28.2418 49.4833 27.7752 49.71C27.3085 49.9367 26.7818 50.05 26.1952 50.05C25.5018 50.05 24.8818 49.9 24.3352 49.6C23.7952 49.2933 23.3718 48.87 23.0652 48.33C22.7652 47.79 22.6152 47.1733 22.6152 46.48C22.6152 45.7867 22.7652 45.17 23.0652 44.63C23.3718 44.0833 23.7952 43.66 24.3352 43.36C24.8752 43.0533 25.4918 42.9 26.1852 42.9C27.0252 42.9 27.7318 43.1033 28.3052 43.51C28.8852 43.9167 29.2685 44.48 29.4552 45.2H27.5652ZM32.2323 45.35C32.4323 45.0433 32.6823 44.8033 32.9823 44.63C33.2823 44.45 33.6157 44.36 33.9823 44.36V46.17H33.5123C33.0857 46.17 32.7657 46.2633 32.5523 46.45C32.339 46.63 32.2323 46.95 32.2323 47.41V50H30.5223V44.42H32.2323V45.35ZM37.3397 50.08C36.793 50.08 36.2997 49.9633 35.8597 49.73C35.4264 49.4967 35.083 49.1633 34.8297 48.73C34.583 48.2967 34.4597 47.79 34.4597 47.21C34.4597 46.6367 34.5864 46.1333 34.8397 45.7C35.093 45.26 35.4397 44.9233 35.8797 44.69C36.3197 44.4567 36.813 44.34 37.3597 44.34C37.9064 44.34 38.3997 44.4567 38.8397 44.69C39.2797 44.9233 39.6264 45.26 39.8797 45.7C40.133 46.1333 40.2597 46.6367 40.2597 47.21C40.2597 47.7833 40.1297 48.29 39.8697 48.73C39.6164 49.1633 39.2664 49.4967 38.8197 49.73C38.3797 49.9633 37.8864 50.08 37.3397 50.08ZM37.3397 48.6C37.6664 48.6 37.943 48.48 38.1697 48.24C38.403 48 38.5197 47.6567 38.5197 47.21C38.5197 46.7633 38.4064 46.42 38.1797 46.18C37.9597 45.94 37.6864 45.82 37.3597 45.82C37.0264 45.82 36.7497 45.94 36.5297 46.18C36.3097 46.4133 36.1997 46.7567 36.1997 47.21C36.1997 47.6567 36.3064 48 36.5197 48.24C36.7397 48.48 37.013 48.6 37.3397 48.6ZM49.1769 44.42L47.6669 50H45.7769L44.8969 46.38L43.9869 50H42.1069L40.5869 44.42H42.2969L43.0869 48.41L44.0269 44.42H45.8369L46.7869 48.39L47.5669 44.42H49.1769ZM52.939 48.55V50H52.069C51.449 50 50.9657 49.85 50.619 49.55C50.2723 49.2433 50.099 48.7467 50.099 48.06V45.84H49.419V44.42H50.099V43.06H51.809V44.42H52.929V45.84H51.809V48.08C51.809 48.2467 51.849 48.3667 51.929 48.44C52.009 48.5133 52.1423 48.55 52.329 48.55H52.939ZM57.3215 44.36C57.9615 44.36 58.4748 44.5733 58.8615 45C59.2482 45.42 59.4415 46 59.4415 46.74V50H57.7415V46.97C57.7415 46.5967 57.6448 46.3067 57.4515 46.1C57.2582 45.8933 56.9982 45.79 56.6715 45.79C56.3448 45.79 56.0848 45.8933 55.8915 46.1C55.6982 46.3067 55.6015 46.5967 55.6015 46.97V50H53.8915V42.6H55.6015V45.17C55.7748 44.9233 56.0115 44.7267 56.3115 44.58C56.6115 44.4333 56.9482 44.36 57.3215 44.36ZM65.6998 47.27H63.9598V49.05H62.3398V47.27H60.5998V45.74H62.3398V43.95H63.9598V45.74H65.6998V47.27Z" fill="#002247"/>
</svg>
