<svg width="133" height="137" viewBox="0 0 133 137" fill="none" xmlns="http://www.w3.org/2000/svg">
<path d="M9.38 129L4.66 122.8V129H1.24V114.96H4.66V121.12L9.34 114.96H13.36L7.92 121.84L13.56 129H9.38ZM16.9053 116.68C16.3053 116.68 15.812 116.507 15.4253 116.16C15.052 115.8 14.8653 115.36 14.8653 114.84C14.8653 114.307 15.052 113.867 15.4253 113.52C15.812 113.16 16.3053 112.98 16.9053 112.98C17.492 112.98 17.972 113.16 18.3453 113.52C18.732 113.867 18.9253 114.307 18.9253 114.84C18.9253 115.36 18.732 115.8 18.3453 116.16C17.972 116.507 17.492 116.68 16.9053 116.68ZM18.6053 117.84V129H15.1853V117.84H18.6053ZM20.4038 123.4C20.4038 122.253 20.6171 121.247 21.0438 120.38C21.4838 119.513 22.0771 118.847 22.8238 118.38C23.5704 117.913 24.4038 117.68 25.3238 117.68C26.0571 117.68 26.7238 117.833 27.3238 118.14C27.9371 118.447 28.4171 118.86 28.7638 119.38V114.2H32.1838V129H28.7638V127.4C28.4438 127.933 27.9838 128.36 27.3838 128.68C26.7971 129 26.1104 129.16 25.3238 129.16C24.4038 129.16 23.5704 128.927 22.8238 128.46C22.0771 127.98 21.4838 127.307 21.0438 126.44C20.6171 125.56 20.4038 124.547 20.4038 123.4ZM28.7638 123.42C28.7638 122.567 28.5238 121.893 28.0438 121.4C27.5771 120.907 27.0038 120.66 26.3238 120.66C25.6438 120.66 25.0638 120.907 24.5838 121.4C24.1171 121.88 23.8838 122.547 23.8838 123.4C23.8838 124.253 24.1171 124.933 24.5838 125.44C25.0638 125.933 25.6438 126.18 26.3238 126.18C27.0038 126.18 27.5771 125.933 28.0438 125.44C28.5238 124.947 28.7638 124.273 28.7638 123.42ZM39.198 129.16C38.2246 129.16 37.358 128.993 36.598 128.66C35.838 128.327 35.238 127.873 34.798 127.3C34.358 126.713 34.1113 126.06 34.058 125.34H37.438C37.478 125.727 37.658 126.04 37.978 126.28C38.298 126.52 38.6913 126.64 39.158 126.64C39.5846 126.64 39.9113 126.56 40.138 126.4C40.378 126.227 40.498 126.007 40.498 125.74C40.498 125.42 40.3313 125.187 39.998 125.04C39.6646 124.88 39.1246 124.707 38.378 124.52C37.578 124.333 36.9113 124.14 36.378 123.94C35.8446 123.727 35.3846 123.4 34.998 122.96C34.6113 122.507 34.418 121.9 34.418 121.14C34.418 120.5 34.5913 119.92 34.938 119.4C35.298 118.867 35.818 118.447 36.498 118.14C37.1913 117.833 38.0113 117.68 38.958 117.68C40.358 117.68 41.458 118.027 42.258 118.72C43.0713 119.413 43.538 120.333 43.658 121.48H40.498C40.4446 121.093 40.2713 120.787 39.978 120.56C39.698 120.333 39.3246 120.22 38.858 120.22C38.458 120.22 38.1513 120.3 37.938 120.46C37.7246 120.607 37.618 120.813 37.618 121.08C37.618 121.4 37.7846 121.64 38.118 121.8C38.4646 121.96 38.998 122.12 39.718 122.28C40.5446 122.493 41.218 122.707 41.738 122.92C42.258 123.12 42.7113 123.453 43.098 123.92C43.498 124.373 43.7046 124.987 43.718 125.76C43.718 126.413 43.5313 127 43.158 127.52C42.798 128.027 42.2713 128.427 41.578 128.72C40.898 129.013 40.1046 129.16 39.198 129.16ZM55.1303 119.4C54.877 118.933 54.5103 118.58 54.0303 118.34C53.5636 118.087 53.0103 117.96 52.3703 117.96C51.2636 117.96 50.377 118.327 49.7103 119.06C49.0436 119.78 48.7103 120.747 48.7103 121.96C48.7103 123.253 49.057 124.267 49.7503 125C50.457 125.72 51.4236 126.08 52.6503 126.08C53.4903 126.08 54.197 125.867 54.7703 125.44C55.357 125.013 55.7836 124.4 56.0503 123.6H51.7103V121.08H59.1503V124.26C58.897 125.113 58.4636 125.907 57.8503 126.64C57.2503 127.373 56.4836 127.967 55.5503 128.42C54.617 128.873 53.5636 129.1 52.3903 129.1C51.0036 129.1 49.7636 128.8 48.6703 128.2C47.5903 127.587 46.7436 126.74 46.1303 125.66C45.5303 124.58 45.2303 123.347 45.2303 121.96C45.2303 120.573 45.5303 119.34 46.1303 118.26C46.7436 117.167 47.5903 116.32 48.6703 115.72C49.7503 115.107 50.9836 114.8 52.3703 114.8C54.0503 114.8 55.4636 115.207 56.6103 116.02C57.7703 116.833 58.537 117.96 58.9103 119.4H55.1303ZM64.4647 119.7C64.8647 119.087 65.3647 118.607 65.9647 118.26C66.5647 117.9 67.2314 117.72 67.9647 117.72V121.34H67.0247C66.1714 121.34 65.5314 121.527 65.1047 121.9C64.678 122.26 64.4647 122.9 64.4647 123.82V129H61.0447V117.84H64.4647V119.7ZM74.6794 129.16C73.586 129.16 72.5994 128.927 71.7194 128.46C70.8527 127.993 70.166 127.327 69.6594 126.46C69.166 125.593 68.9194 124.58 68.9194 123.42C68.9194 122.273 69.1727 121.267 69.6794 120.4C70.186 119.52 70.8794 118.847 71.7594 118.38C72.6394 117.913 73.626 117.68 74.7194 117.68C75.8127 117.68 76.7994 117.913 77.6794 118.38C78.5594 118.847 79.2527 119.52 79.7594 120.4C80.266 121.267 80.5194 122.273 80.5194 123.42C80.5194 124.567 80.2594 125.58 79.7394 126.46C79.2327 127.327 78.5327 127.993 77.6394 128.46C76.7594 128.927 75.7727 129.16 74.6794 129.16ZM74.6794 126.2C75.3327 126.2 75.886 125.96 76.3394 125.48C76.806 125 77.0394 124.313 77.0394 123.42C77.0394 122.527 76.8127 121.84 76.3594 121.36C75.9194 120.88 75.3727 120.64 74.7194 120.64C74.0527 120.64 73.4994 120.88 73.0594 121.36C72.6194 121.827 72.3994 122.513 72.3994 123.42C72.3994 124.313 72.6127 125 73.0394 125.48C73.4794 125.96 74.026 126.2 74.6794 126.2ZM98.3538 117.84L95.3338 129H91.5538L89.7938 121.76L87.9738 129H84.2138L81.1738 117.84H84.5938L86.1738 125.82L88.0538 117.84H91.6738L93.5738 125.78L95.1338 117.84H98.3538ZM105.878 126.1V129H104.138C102.898 129 101.931 128.7 101.238 128.1C100.545 127.487 100.198 126.493 100.198 125.12V120.68H98.838V117.84H100.198V115.12H103.618V117.84H105.858V120.68H103.618V125.16C103.618 125.493 103.698 125.733 103.858 125.88C104.018 126.027 104.285 126.1 104.658 126.1H105.878ZM114.643 117.72C115.923 117.72 116.95 118.147 117.723 119C118.496 119.84 118.883 121 118.883 122.48V129H115.483V122.94C115.483 122.193 115.29 121.613 114.903 121.2C114.516 120.787 113.996 120.58 113.343 120.58C112.69 120.58 112.17 120.787 111.783 121.2C111.396 121.613 111.203 122.193 111.203 122.94V129H107.783V114.2H111.203V119.34C111.55 118.847 112.023 118.453 112.623 118.16C113.223 117.867 113.896 117.72 114.643 117.72ZM131.4 123.54H127.92V127.1H124.68V123.54H121.2V120.48H124.68V116.9H127.92V120.48H131.4V123.54Z" fill="white"/>
<path d="M46.379 77.5571C46.379 66.7132 55.1698 57.9224 66.0137 57.9224C76.8577 57.9224 85.6484 66.7132 85.6484 77.5571V103.082L70.2267 105.166C68.4069 105.412 66.5635 105.429 64.7395 105.217L46.379 103.082V77.5571Z" fill="white"/>
<path d="M85.6484 74.121C85.6484 68.9702 89.824 64.7946 94.9749 64.7946C100.126 64.7946 104.301 68.9702 104.301 74.121V86.7107C104.301 88.3548 103.49 89.8931 102.133 90.8215L97.5364 93.9666C95.8371 95.1293 94.3095 96.5247 92.9983 98.112L90.9613 100.578C89.1702 102.746 85.6484 101.479 85.6484 98.6672V74.121Z" fill="white"/>
<path d="M46.379 74.121C46.379 68.9702 42.2034 64.7946 37.0525 64.7946C31.9016 64.7946 27.726 68.9702 27.726 74.121V86.7107C27.726 88.3548 28.5374 89.8931 29.8943 90.8215L37.0525 95.7192L42.4521 100.628C43.9012 102.077 46.379 101.051 46.379 99.0013V74.121Z" fill="white"/>
<circle cx="66.5046" cy="53.5046" r="51.5046" stroke="white" stroke-width="4"/>
<path fill-rule="evenodd" clip-rule="evenodd" d="M85.6484 27.4886C85.6484 38.3325 76.8577 47.1233 66.0137 47.1233C55.1698 47.1233 46.379 38.3325 46.379 27.4886C46.379 16.6446 55.1698 7.85388 66.0137 7.85388C76.8577 7.85388 85.6484 16.6446 85.6484 27.4886ZM62.0868 20.6165C62.0868 18.4477 63.845 16.6895 66.0138 16.6895C68.1825 16.6895 69.9407 18.4477 69.9407 20.6165V23.5616H72.8859C75.0547 23.5616 76.8128 25.3198 76.8128 27.4886C76.8128 29.6574 75.0547 31.4155 72.8859 31.4155H69.9407V34.3608C69.9407 36.5296 68.1825 38.2877 66.0138 38.2877C63.845 38.2877 62.0868 36.5295 62.0868 34.3608V31.4155H59.1416C56.9728 31.4155 55.2147 29.6574 55.2147 27.4886C55.2147 25.3198 56.9728 23.5616 59.1416 23.5616H62.0868V20.6165Z" fill="white"/>
<path fill-rule="evenodd" clip-rule="evenodd" d="M46.379 47.6142C46.379 52.7651 42.2034 56.9407 37.0525 56.9407C31.9016 56.9407 27.726 52.7651 27.726 47.6142C27.726 42.4633 31.9016 38.2877 37.0525 38.2877C42.2034 38.2877 46.379 42.4633 46.379 47.6142ZM35.5799 44.8028C35.5799 43.9156 36.2992 43.1964 37.1864 43.1964C38.0736 43.1964 38.7929 43.9156 38.7929 44.8028V46.0077H39.8639C40.7511 46.0077 41.4703 46.7269 41.4703 47.6142C41.4703 48.5014 40.7511 49.2206 39.8639 49.2206H38.7929V50.4255C38.7929 51.3127 38.0736 52.032 37.1864 52.032C36.2992 52.032 35.5799 51.3127 35.5799 50.4255V49.2206H34.2412C33.354 49.2206 32.6347 48.5014 32.6347 47.6142C32.6347 46.7269 33.354 46.0077 34.2412 46.0077H35.5799V44.8028Z" fill="white"/>
<path fill-rule="evenodd" clip-rule="evenodd" d="M104.301 47.6142C104.301 52.7651 100.126 56.9407 94.9749 56.9407C89.824 56.9407 85.6484 52.7651 85.6484 47.6142C85.6484 42.4633 89.824 38.2877 94.9749 38.2877C100.126 38.2877 104.301 42.4633 104.301 47.6142ZM93.5023 44.8028C93.5023 43.9156 94.2216 43.1964 95.1088 43.1964C95.996 43.1964 96.7153 43.9156 96.7153 44.8028V46.0077H97.7863C98.6735 46.0077 99.3927 46.7269 99.3927 47.6142C99.3927 48.5014 98.6735 49.2206 97.7863 49.2206H96.7153V50.4255C96.7153 51.3127 95.996 52.032 95.1088 52.032C94.2216 52.032 93.5023 51.3127 93.5023 50.4255V49.2206H92.1636C91.2764 49.2206 90.5571 48.5014 90.5571 47.6142C90.5571 46.7269 91.2764 46.0077 92.1636 46.0077H93.5023V44.8028Z" fill="white"/>
</svg>
